# xmcd
#
# Track frame offsets: 
#        150
#        12912
#        25872
#        37727
#        50262
#        63755
#        79440
#        94130
#        109287
#        124145
#        137660
#        153945
#        167212
#        179172
#        195122
#        209065
#        219785
#        230560
#        241765
#        253637
#
# Disc length: 3529 seconds
#
# Revision: 7
# Processed by: cddbd v1.5.2PL0 Copyright (c) Steve Scherf et al.
# Submitted via: ExactAudioCopy v1.3
#
DISCID=0c0dc714
DTITLE=Mickey Gilley - Ten Years Of Hits
DYEAR=1984
DGENRE=Country
TTITLE0=Room Full Of Roses
TTITLE1=I Overlooked An Orchid
TTITLE2=Window Up Above
TTITLE3=City Lights
TTITLE4=Don't The Girls All Get Prettier At Closing Time
TTITLE5=Lonely Nights
TTITLE6=Tears Of The Lonely
TTITLE7=Put Your Dreams Away
TTITLE8=Talk To Me
TTITLE9=You've Really Got A Hold On Me
TTITLE10=Stand By Me
TTITLE11=True Love Ways
TTITLE12=That's All That Matters
TTITLE13=A Headache Tomorrow (Or A Heartache Tonight)
TTITLE14=You Don't Know Me
TTITLE15=Bring It On Home To Me
TTITLE16=Lawdy Miss Clawdy
TTITLE17=She's Pulling Me Back Again
TTITLE18=Chains Of Love
TTITLE19=The Power Of Positive Drinkin'
EXTD=
EXTT0=
EXTT1=
EXTT2=
EXTT3=
EXTT4=
EXTT5=
EXTT6=
EXTT7=
EXTT8=
EXTT9=
EXTT10=
EXTT11=
EXTT12=
EXTT13=
EXTT14=
EXTT15=
EXTT16=
EXTT17=
EXTT18=
EXTT19=
PLAYORDER=
